<?xml version="1.0" encoding="UTF-8" standalone="no"?><svg xmlns="http://www.w3.org/2000/svg" xmlns:xlink="http://www.w3.org/1999/xlink" fill="#ffffff" height="24" preserveAspectRatio="xMidYMid meet" version="1" viewBox="3.0 3.0 24.0 24.0" width="24" zoomAndPan="magnify"><g id="change1_1"><path d="M 15 3 C 8.373 3 3 8.373 3 15 C 3 21.627 8.373 27 15 27 C 21.627 27 27 21.627 27 15 C 27 8.373 21.627 3 15 3 z M 15 5 C 20.523 5 25 9.477 25 15 C 25 20.523 20.523 25 15 25 C 9.477 25 5 20.523 5 15 C 5 9.477 9.477 5 15 5 z M 14.359375 10.068359 C 12.630375 12.672359 11.344078 14.709766 10.455078 16.384766 L 10.455078 18.208984 L 15.28125 18.208984 L 15.28125 19.931641 L 17.251953 19.931641 L 17.251953 18.208984 L 18.542969 18.208984 L 18.542969 16.494141 L 17.251953 16.494141 L 17.251953 10.068359 L 14.359375 10.068359 z M 15.220703 11.673828 L 15.330078 11.673828 L 15.330078 16.554688 L 12.308594 16.554688 L 12.308594 16.445312 C 13.436594 14.401312 14.318703 13.020828 15.220703 11.673828 z" fill="inherit"/></g></svg>