<?xml version="1.0" encoding="UTF-8" standalone="no"?><svg xmlns="http://www.w3.org/2000/svg" xmlns:xlink="http://www.w3.org/1999/xlink" fill="#ffffff" height="40" preserveAspectRatio="xMidYMid meet" version="1" viewBox="4.0 4.0 40.0 40.0" width="40" zoomAndPan="magnify"><g><path d="M0,0H48V48H0Z" fill="none"/><g id="change1_1"><path d="M24,34H20a2,2,0,0,1,0-4h4a2,2,0,0,0,0-4H20a2,2,0,0,1-2-2V16a2,2,0,0,1,2-2h8a2,2,0,0,1,0,4H22v4h2a6,6,0,0,1,0,12Z"/></g><g id="change1_2"><path d="M24,44A20,20,0,1,1,44,24,20.023,20.023,0,0,1,24,44ZM24,8A16,16,0,1,0,40,24,16.019,16.019,0,0,0,24,8Z"/></g></g></svg>